<?xml version="1.0" encoding="utf-8" ?>
<svg baseProfile="full" height="800px" version="1.1" viewBox="0 0 800 800" width="800px" xmlns="http://www.w3.org/2000/svg" xmlns:ev="http://www.w3.org/2001/xml-events" xmlns:xlink="http://www.w3.org/1999/xlink"><defs><radialGradient cx="0.5" cy="0.5" id="sunGradient"><stop offset="0%" stop-color="#FFE14D" /><stop offset="50%" stop-color="#FFC700" /><stop offset="100%" stop-color="#FFA500" /></radialGradient></defs><path d="M 400.0,40.0 A 360,360 0 0,1 711.7691453623979,580.0 L 668.467875173176,555.0 A 310,310 0 0,0 400.0,90.0 Z" fill="#FFD700" /><path d="M 711.7691453623979,580.0 A 360,360 0 0,1 88.23085463760208,580.0 L 131.53212482682397,555.0 A 310,310 0 0,0 668.467875173176,555.0 Z" fill="#2E5C99" /><path d="M 88.23085463760208,580.0 A 360,360 0 0,1 399.99999999999994,40.0 L 399.99999999999994,90.0 A 310,310 0 0,0 131.53212482682397,555.0 Z" fill="#CC2233" /><polygon fill="#FFD700" points="366.7341294691585,243.4963838825911 400.0,100.0 433.26587053084154,243.49638388259112" /><polygon fill="#5588CC" points="449.44271909999156,247.83095739277545 550.0,140.1923788646684 507.06089701741735,281.09682792361696" /><polygon fill="#2E5C99" points="518.903172076383,292.9391029825827 659.8076211353316,250.00000000000003 552.1690426072246,350.55728090000844" /><polygon fill="#5588CC" points="556.5036161174089,366.7341294691585 700.0,400.0 556.5036161174089,433.2658705308415" /><polygon fill="#2E5C99" points="552.1690426072246,449.44271909999156 659.8076211353316,550.0 518.903172076383,507.0608970174173" /><polygon fill="#DD4444" points="507.06089701741735,518.903172076383 550.0,659.8076211353316 449.44271909999156,552.1690426072246" /><polygon fill="#CC2233" points="433.26587053084154,556.5036161174089 400.0,700.0 366.7341294691585,556.5036161174089" /><polygon fill="#DD4444" points="350.55728090000844,552.1690426072246 250.00000000000006,659.8076211353316 292.93910298258277,518.9031720763832" /><polygon fill="#CC2233" points="281.0968279236169,507.0608970174173 140.1923788646684,550.0 247.83095739277545,449.4427190999916" /><polygon fill="#FFA500" points="243.4963838825911,433.2658705308415 100.0,400.00000000000006 243.4963838825911,366.7341294691586" /><polygon fill="#FFD700" points="247.83095739277545,350.5572809000084 140.1923788646684,249.99999999999997 281.09682792361696,292.93910298258265" /><polygon fill="#FFA500" points="292.93910298258265,281.09682792361696 249.99999999999986,140.1923788646685 350.5572809000084,247.83095739277545" /><circle cx="400" cy="400" fill="url(#sunGradient)" r="160" /></svg>